<?xml version="1.0" encoding="UTF-8"?>
<svg width="300px" height="352px" viewBox="0 0 300 352" version="1.1" xmlns="http://www.w3.org/2000/svg" xmlns:xlink="http://www.w3.org/1999/xlink">
    <!-- Generator: Sketch 55.1 (78136) - https://sketchapp.com -->
    <title>Group 3 Copy</title>
    <desc>Created with Sketch.</desc>
    <defs>
        <rect id="path-1" x="0" y="0" width="300" height="352"></rect>
    </defs>
    <g id="Page-1" stroke="none" stroke-width="1" fill="none" fill-rule="evenodd">
        <g id="Group-3-Copy">
            <mask id="mask-2" fill="white">
                <use xlink:href="#path-1"></use>
            </mask>
            <use id="Mask" fill="#006544" fill-rule="nonzero" xlink:href="#path-1"></use>
            <g id="Group-3" mask="url(#mask-2)">
                <g transform="translate(-46.000000, -24.000000)">
                    <g id="Group-2-Copy" transform="translate(42.000000, 54.000000)">
                        <path d="M51.85965,25.8535534 L51.85965,56.8535534 C51.85965,60.7195466 54.9936568,63.8535534 58.85965,63.8535534 L89.85965,63.8535534 L89.85965,32.8535534 C89.85965,28.9875601 86.7256433,25.8535534 82.85965,25.8535534 L51.85965,25.8535534 Z" id="Rectangle" stroke="#007856" stroke-width="2" fill-rule="nonzero" transform="translate(70.859650, 44.853553) rotate(-315.000000) translate(-70.859650, -44.853553) "></path>
                        <path d="M10.14035,25.1464466 L10.14035,56.1464466 C10.14035,60.0124399 13.2743567,63.1464466 17.14035,63.1464466 L48.14035,63.1464466 L48.14035,32.1464466 C48.14035,28.2804534 45.0063432,25.1464466 41.14035,25.1464466 L10.14035,25.1464466 Z" id="Rectangle-Copy-3" stroke="#007856" stroke-width="2" fill-rule="nonzero" transform="translate(29.140350, 44.146447) rotate(-315.000000) translate(-29.140350, -44.146447) "></path>
                        <rect id="Rectangle" fill="#005B3E" fill-rule="nonzero" transform="translate(49.646447, 71.723611) rotate(-315.000000) translate(-49.646447, -71.723611) " x="37.6464466" y="59.7236111" width="24" height="24"></rect>
                        <rect id="Rectangle-Copy-4" fill="#005B3E" fill-rule="nonzero" transform="translate(50.353553, 17.276389) rotate(-315.000000) translate(-50.353553, -17.276389) " x="38.3535534" y="5.27638892" width="24" height="24"></rect>
                        <polygon id="Star" fill="#007856" fill-rule="nonzero" points="29 48 24.297718 50.472136 25.1957739 45.236068 21.3915479 41.527864 26.648859 40.763932 29 36 31.351141 40.763932 36.6084521 41.527864 32.8042261 45.236068 33.702282 50.472136"></polygon>
                        <path d="M48.0550027,38.3242283 L50.3535534,40.5981796" id="Path-3" stroke="#006544" fill-rule="nonzero"></path>
                        <path d="M49.9637005,36 L52.9066908,38.9090602" id="Path-4" stroke="#006544" fill-rule="nonzero"></path>
                        <path d="M49.7982468,48.4713804 L52.002203,50.7591885" id="Path-5" stroke="#006544" fill-rule="nonzero"></path>
                        <path d="M47.2843464,50.2687494 L49.7982468,52.7999413" id="Path-6" stroke="#006544" fill-rule="nonzero"></path>
                        <polygon id="Star-Copy" fill="#007856" fill-rule="nonzero" points="71 48 66.297718 50.472136 67.1957739 45.236068 63.3915479 41.527864 68.648859 40.763932 71 36 73.351141 40.763932 78.6084521 41.527864 74.8042261 45.236068 75.702282 50.472136"></polygon>
                    </g>
                    <g id="Group-2-Copy-14">
                        <path d="M51.85965,25.8535534 L51.85965,56.8535534 C51.85965,60.7195466 54.9936568,63.8535534 58.85965,63.8535534 L89.85965,63.8535534 L89.85965,32.8535534 C89.85965,28.9875601 86.7256433,25.8535534 82.85965,25.8535534 L51.85965,25.8535534 Z" id="Rectangle" stroke="#007856" stroke-width="2" fill-rule="nonzero" transform="translate(70.859650, 44.853553) rotate(-315.000000) translate(-70.859650, -44.853553) "></path>
                        <path d="M10.14035,25.1464466 L10.14035,56.1464466 C10.14035,60.0124399 13.2743567,63.1464466 17.14035,63.1464466 L48.14035,63.1464466 L48.14035,32.1464466 C48.14035,28.2804534 45.0063432,25.1464466 41.14035,25.1464466 L10.14035,25.1464466 Z" id="Rectangle-Copy-3" stroke="#007856" stroke-width="2" fill-rule="nonzero" transform="translate(29.140350, 44.146447) rotate(-315.000000) translate(-29.140350, -44.146447) "></path>
                        <rect id="Rectangle" fill="#005B3E" fill-rule="nonzero" transform="translate(49.646447, 71.723611) rotate(-315.000000) translate(-49.646447, -71.723611) " x="37.6464466" y="59.7236111" width="24" height="24"></rect>
                        <rect id="Rectangle-Copy-4" fill="#005B3E" fill-rule="nonzero" transform="translate(50.353553, 17.276389) rotate(-315.000000) translate(-50.353553, -17.276389) " x="38.3535534" y="5.27638892" width="24" height="24"></rect>
                        <path d="M48.0550027,38.3242283 L50.3535534,40.5981796" id="Path-3" stroke="#006544" fill-rule="nonzero"></path>
                        <path d="M49.9637005,36 L52.9066908,38.9090602" id="Path-4" stroke="#006544" fill-rule="nonzero"></path>
                        <path d="M49.7982468,48.4713804 L52.002203,50.7591885" id="Path-5" stroke="#006544" fill-rule="nonzero"></path>
                        <path d="M47.2843464,50.2687494 L49.7982468,52.7999413" id="Path-6" stroke="#006544" fill-rule="nonzero"></path>
                        <polygon id="Star-Copy" fill="#007856" fill-rule="nonzero" points="71 48 66.297718 50.472136 67.1957739 45.236068 63.3915479 41.527864 68.648859 40.763932 71 36 73.351141 40.763932 78.6084521 41.527864 74.8042261 45.236068 75.702282 50.472136"></polygon>
                    </g>
                    <g id="Group-2-Copy-13" transform="translate(84.000000, 0.000000)">
                        <path d="M51.85965,25.8535534 L51.85965,56.8535534 C51.85965,60.7195466 54.9936568,63.8535534 58.85965,63.8535534 L89.85965,63.8535534 L89.85965,32.8535534 C89.85965,28.9875601 86.7256433,25.8535534 82.85965,25.8535534 L51.85965,25.8535534 Z" id="Rectangle" stroke="#007856" stroke-width="2" fill-rule="nonzero" transform="translate(70.859650, 44.853553) rotate(-315.000000) translate(-70.859650, -44.853553) "></path>
                        <path d="M10.14035,25.1464466 L10.14035,56.1464466 C10.14035,60.0124399 13.2743567,63.1464466 17.14035,63.1464466 L48.14035,63.1464466 L48.14035,32.1464466 C48.14035,28.2804534 45.0063432,25.1464466 41.14035,25.1464466 L10.14035,25.1464466 Z" id="Rectangle-Copy-3" stroke="#007856" stroke-width="2" fill-rule="nonzero" transform="translate(29.140350, 44.146447) rotate(-315.000000) translate(-29.140350, -44.146447) "></path>
                        <rect id="Rectangle" fill="#005B3E" fill-rule="nonzero" transform="translate(49.646447, 71.723611) rotate(-315.000000) translate(-49.646447, -71.723611) " x="37.6464466" y="59.7236111" width="24" height="24"></rect>
                        <rect id="Rectangle-Copy-4" fill="#005B3E" fill-rule="nonzero" transform="translate(50.353553, 17.276389) rotate(-315.000000) translate(-50.353553, -17.276389) " x="38.3535534" y="5.27638892" width="24" height="24"></rect>
                        <polygon id="Star" fill="#007856" fill-rule="nonzero" points="29 48 24.297718 50.472136 25.1957739 45.236068 21.3915479 41.527864 26.648859 40.763932 29 36 31.351141 40.763932 36.6084521 41.527864 32.8042261 45.236068 33.702282 50.472136"></polygon>
                        <path d="M48.0550027,38.3242283 L50.3535534,40.5981796" id="Path-3" stroke="#006544" fill-rule="nonzero"></path>
                        <path d="M49.9637005,36 L52.9066908,38.9090602" id="Path-4" stroke="#006544" fill-rule="nonzero"></path>
                        <path d="M49.7982468,48.4713804 L52.002203,50.7591885" id="Path-5" stroke="#006544" fill-rule="nonzero"></path>
                        <path d="M47.2843464,50.2687494 L49.7982468,52.7999413" id="Path-6" stroke="#006544" fill-rule="nonzero"></path>
                        <polygon id="Star-Copy" fill="#007856" fill-rule="nonzero" points="71 48 66.297718 50.472136 67.1957739 45.236068 63.3915479 41.527864 68.648859 40.763932 71 36 73.351141 40.763932 78.6084521 41.527864 74.8042261 45.236068 75.702282 50.472136"></polygon>
                    </g>
                    <g id="Group-2-Copy-12" transform="translate(126.000000, 54.000000)">
                        <path d="M51.85965,25.8535534 L51.85965,56.8535534 C51.85965,60.7195466 54.9936568,63.8535534 58.85965,63.8535534 L89.85965,63.8535534 L89.85965,32.8535534 C89.85965,28.9875601 86.7256433,25.8535534 82.85965,25.8535534 L51.85965,25.8535534 Z" id="Rectangle" stroke="#007856" stroke-width="2" fill-rule="nonzero" transform="translate(70.859650, 44.853553) rotate(-315.000000) translate(-70.859650, -44.853553) "></path>
                        <path d="M10.14035,25.1464466 L10.14035,56.1464466 C10.14035,60.0124399 13.2743567,63.1464466 17.14035,63.1464466 L48.14035,63.1464466 L48.14035,32.1464466 C48.14035,28.2804534 45.0063432,25.1464466 41.14035,25.1464466 L10.14035,25.1464466 Z" id="Rectangle-Copy-3" stroke="#007856" stroke-width="2" fill-rule="nonzero" transform="translate(29.140350, 44.146447) rotate(-315.000000) translate(-29.140350, -44.146447) "></path>
                        <rect id="Rectangle" fill="#005B3E" fill-rule="nonzero" transform="translate(49.646447, 71.723611) rotate(-315.000000) translate(-49.646447, -71.723611) " x="37.6464466" y="59.7236111" width="24" height="24"></rect>
                        <rect id="Rectangle-Copy-4" fill="#005B3E" fill-rule="nonzero" transform="translate(50.353553, 17.276389) rotate(-315.000000) translate(-50.353553, -17.276389) " x="38.3535534" y="5.27638892" width="24" height="24"></rect>
                        <polygon id="Star" fill="#007856" fill-rule="nonzero" points="29 48 24.297718 50.472136 25.1957739 45.236068 21.3915479 41.527864 26.648859 40.763932 29 36 31.351141 40.763932 36.6084521 41.527864 32.8042261 45.236068 33.702282 50.472136"></polygon>
                        <path d="M48.0550027,38.3242283 L50.3535534,40.5981796" id="Path-3" stroke="#006544" fill-rule="nonzero"></path>
                        <path d="M49.9637005,36 L52.9066908,38.9090602" id="Path-4" stroke="#006544" fill-rule="nonzero"></path>
                        <path d="M49.7982468,48.4713804 L52.002203,50.7591885" id="Path-5" stroke="#006544" fill-rule="nonzero"></path>
                        <path d="M47.2843464,50.2687494 L49.7982468,52.7999413" id="Path-6" stroke="#006544" fill-rule="nonzero"></path>
                        <polygon id="Star-Copy" fill="#007856" fill-rule="nonzero" points="71 48 66.297718 50.472136 67.1957739 45.236068 63.3915479 41.527864 68.648859 40.763932 71 36 73.351141 40.763932 78.6084521 41.527864 74.8042261 45.236068 75.702282 50.472136"></polygon>
                    </g>
                    <g id="Group-2-Copy-11" transform="translate(0.000000, 109.000000)">
                        <path d="M51.85965,25.8535534 L51.85965,56.8535534 C51.85965,60.7195466 54.9936568,63.8535534 58.85965,63.8535534 L89.85965,63.8535534 L89.85965,32.8535534 C89.85965,28.9875601 86.7256433,25.8535534 82.85965,25.8535534 L51.85965,25.8535534 Z" id="Rectangle" stroke="#007856" stroke-width="2" fill-rule="nonzero" transform="translate(70.859650, 44.853553) rotate(-315.000000) translate(-70.859650, -44.853553) "></path>
                        <path d="M10.14035,25.1464466 L10.14035,56.1464466 C10.14035,60.0124399 13.2743567,63.1464466 17.14035,63.1464466 L48.14035,63.1464466 L48.14035,32.1464466 C48.14035,28.2804534 45.0063432,25.1464466 41.14035,25.1464466 L10.14035,25.1464466 Z" id="Rectangle-Copy-3" stroke="#007856" stroke-width="2" fill-rule="nonzero" transform="translate(29.140350, 44.146447) rotate(-315.000000) translate(-29.140350, -44.146447) "></path>
                        <rect id="Rectangle" fill="#005B3E" fill-rule="nonzero" transform="translate(49.646447, 71.723611) rotate(-315.000000) translate(-49.646447, -71.723611) " x="37.6464466" y="59.7236111" width="24" height="24"></rect>
                        <rect id="Rectangle-Copy-4" fill="#005B3E" fill-rule="nonzero" transform="translate(50.353553, 17.276389) rotate(-315.000000) translate(-50.353553, -17.276389) " x="38.3535534" y="5.27638892" width="24" height="24"></rect>
                        <path d="M48.0550027,38.3242283 L50.3535534,40.5981796" id="Path-3" stroke="#006544" fill-rule="nonzero"></path>
                        <path d="M49.9637005,36 L52.9066908,38.9090602" id="Path-4" stroke="#006544" fill-rule="nonzero"></path>
                        <path d="M49.7982468,48.4713804 L52.002203,50.7591885" id="Path-5" stroke="#006544" fill-rule="nonzero"></path>
                        <path d="M47.2843464,50.2687494 L49.7982468,52.7999413" id="Path-6" stroke="#006544" fill-rule="nonzero"></path>
                        <polygon id="Star-Copy" fill="#007856" fill-rule="nonzero" points="71 48 66.297718 50.472136 67.1957739 45.236068 63.3915479 41.527864 68.648859 40.763932 71 36 73.351141 40.763932 78.6084521 41.527864 74.8042261 45.236068 75.702282 50.472136"></polygon>
                    </g>
                    <g id="Group-2-Copy-10" transform="translate(42.000000, 163.000000)">
                        <path d="M51.85965,25.8535534 L51.85965,56.8535534 C51.85965,60.7195466 54.9936568,63.8535534 58.85965,63.8535534 L89.85965,63.8535534 L89.85965,32.8535534 C89.85965,28.9875601 86.7256433,25.8535534 82.85965,25.8535534 L51.85965,25.8535534 Z" id="Rectangle" stroke="#007856" stroke-width="2" fill-rule="nonzero" transform="translate(70.859650, 44.853553) rotate(-315.000000) translate(-70.859650, -44.853553) "></path>
                        <path d="M10.14035,25.1464466 L10.14035,56.1464466 C10.14035,60.0124399 13.2743567,63.1464466 17.14035,63.1464466 L48.14035,63.1464466 L48.14035,32.1464466 C48.14035,28.2804534 45.0063432,25.1464466 41.14035,25.1464466 L10.14035,25.1464466 Z" id="Rectangle-Copy-3" stroke="#007856" stroke-width="2" fill-rule="nonzero" transform="translate(29.140350, 44.146447) rotate(-315.000000) translate(-29.140350, -44.146447) "></path>
                        <rect id="Rectangle" fill="#005B3E" fill-rule="nonzero" transform="translate(49.646447, 71.723611) rotate(-315.000000) translate(-49.646447, -71.723611) " x="37.6464466" y="59.7236111" width="24" height="24"></rect>
                        <rect id="Rectangle-Copy-4" fill="#005B3E" fill-rule="nonzero" transform="translate(50.353553, 17.276389) rotate(-315.000000) translate(-50.353553, -17.276389) " x="38.3535534" y="5.27638892" width="24" height="24"></rect>
                        <polygon id="Star" fill="#007856" fill-rule="nonzero" points="29 48 24.297718 50.472136 25.1957739 45.236068 21.3915479 41.527864 26.648859 40.763932 29 36 31.351141 40.763932 36.6084521 41.527864 32.8042261 45.236068 33.702282 50.472136"></polygon>
                        <path d="M48.0550027,38.3242283 L50.3535534,40.5981796" id="Path-3" stroke="#006544" fill-rule="nonzero"></path>
                        <path d="M49.9637005,36 L52.9066908,38.9090602" id="Path-4" stroke="#006544" fill-rule="nonzero"></path>
                        <path d="M49.7982468,48.4713804 L52.002203,50.7591885" id="Path-5" stroke="#006544" fill-rule="nonzero"></path>
                        <path d="M47.2843464,50.2687494 L49.7982468,52.7999413" id="Path-6" stroke="#006544" fill-rule="nonzero"></path>
                        <polygon id="Star-Copy" fill="#007856" fill-rule="nonzero" points="71 48 66.297718 50.472136 67.1957739 45.236068 63.3915479 41.527864 68.648859 40.763932 71 36 73.351141 40.763932 78.6084521 41.527864 74.8042261 45.236068 75.702282 50.472136"></polygon>
                    </g>
                    <g id="Group-2-Copy-9" transform="translate(84.000000, 109.000000)">
                        <path d="M51.85965,25.8535534 L51.85965,56.8535534 C51.85965,60.7195466 54.9936568,63.8535534 58.85965,63.8535534 L89.85965,63.8535534 L89.85965,32.8535534 C89.85965,28.9875601 86.7256433,25.8535534 82.85965,25.8535534 L51.85965,25.8535534 Z" id="Rectangle" stroke="#007856" stroke-width="2" fill-rule="nonzero" transform="translate(70.859650, 44.853553) rotate(-315.000000) translate(-70.859650, -44.853553) "></path>
                        <path d="M10.14035,25.1464466 L10.14035,56.1464466 C10.14035,60.0124399 13.2743567,63.1464466 17.14035,63.1464466 L48.14035,63.1464466 L48.14035,32.1464466 C48.14035,28.2804534 45.0063432,25.1464466 41.14035,25.1464466 L10.14035,25.1464466 Z" id="Rectangle-Copy-3" stroke="#007856" stroke-width="2" fill-rule="nonzero" transform="translate(29.140350, 44.146447) rotate(-315.000000) translate(-29.140350, -44.146447) "></path>
                        <rect id="Rectangle" fill="#005B3E" fill-rule="nonzero" transform="translate(49.646447, 71.723611) rotate(-315.000000) translate(-49.646447, -71.723611) " x="37.6464466" y="59.7236111" width="24" height="24"></rect>
                        <rect id="Rectangle-Copy-4" fill="#005B3E" fill-rule="nonzero" transform="translate(50.353553, 17.276389) rotate(-315.000000) translate(-50.353553, -17.276389) " x="38.3535534" y="5.27638892" width="24" height="24"></rect>
                        <polygon id="Star" fill="#007856" fill-rule="nonzero" points="29 48 24.297718 50.472136 25.1957739 45.236068 21.3915479 41.527864 26.648859 40.763932 29 36 31.351141 40.763932 36.6084521 41.527864 32.8042261 45.236068 33.702282 50.472136"></polygon>
                        <path d="M48.0550027,38.3242283 L50.3535534,40.5981796" id="Path-3" stroke="#006544" fill-rule="nonzero"></path>
                        <path d="M49.9637005,36 L52.9066908,38.9090602" id="Path-4" stroke="#006544" fill-rule="nonzero"></path>
                        <path d="M49.7982468,48.4713804 L52.002203,50.7591885" id="Path-5" stroke="#006544" fill-rule="nonzero"></path>
                        <path d="M47.2843464,50.2687494 L49.7982468,52.7999413" id="Path-6" stroke="#006544" fill-rule="nonzero"></path>
                        <polygon id="Star-Copy" fill="#007856" fill-rule="nonzero" points="71 48 66.297718 50.472136 67.1957739 45.236068 63.3915479 41.527864 68.648859 40.763932 71 36 73.351141 40.763932 78.6084521 41.527864 74.8042261 45.236068 75.702282 50.472136"></polygon>
                    </g>
                    <g id="Group-2-Copy-8" transform="translate(126.000000, 163.000000)">
                        <path d="M51.85965,25.8535534 L51.85965,56.8535534 C51.85965,60.7195466 54.9936568,63.8535534 58.85965,63.8535534 L89.85965,63.8535534 L89.85965,32.8535534 C89.85965,28.9875601 86.7256433,25.8535534 82.85965,25.8535534 L51.85965,25.8535534 Z" id="Rectangle" stroke="#007856" stroke-width="2" fill-rule="nonzero" transform="translate(70.859650, 44.853553) rotate(-315.000000) translate(-70.859650, -44.853553) "></path>
                        <path d="M10.14035,25.1464466 L10.14035,56.1464466 C10.14035,60.0124399 13.2743567,63.1464466 17.14035,63.1464466 L48.14035,63.1464466 L48.14035,32.1464466 C48.14035,28.2804534 45.0063432,25.1464466 41.14035,25.1464466 L10.14035,25.1464466 Z" id="Rectangle-Copy-3" stroke="#007856" stroke-width="2" fill-rule="nonzero" transform="translate(29.140350, 44.146447) rotate(-315.000000) translate(-29.140350, -44.146447) "></path>
                        <rect id="Rectangle" fill="#005B3E" fill-rule="nonzero" transform="translate(49.646447, 71.723611) rotate(-315.000000) translate(-49.646447, -71.723611) " x="37.6464466" y="59.7236111" width="24" height="24"></rect>
                        <rect id="Rectangle-Copy-4" fill="#005B3E" fill-rule="nonzero" transform="translate(50.353553, 17.276389) rotate(-315.000000) translate(-50.353553, -17.276389) " x="38.3535534" y="5.27638892" width="24" height="24"></rect>
                        <polygon id="Star" fill="#007856" fill-rule="nonzero" points="29 48 24.297718 50.472136 25.1957739 45.236068 21.3915479 41.527864 26.648859 40.763932 29 36 31.351141 40.763932 36.6084521 41.527864 32.8042261 45.236068 33.702282 50.472136"></polygon>
                        <path d="M48.0550027,38.3242283 L50.3535534,40.5981796" id="Path-3" stroke="#006544" fill-rule="nonzero"></path>
                        <path d="M49.9637005,36 L52.9066908,38.9090602" id="Path-4" stroke="#006544" fill-rule="nonzero"></path>
                        <path d="M49.7982468,48.4713804 L52.002203,50.7591885" id="Path-5" stroke="#006544" fill-rule="nonzero"></path>
                        <path d="M47.2843464,50.2687494 L49.7982468,52.7999413" id="Path-6" stroke="#006544" fill-rule="nonzero"></path>
                        <polygon id="Star-Copy" fill="#007856" fill-rule="nonzero" points="71 48 66.297718 50.472136 67.1957739 45.236068 63.3915479 41.527864 68.648859 40.763932 71 36 73.351141 40.763932 78.6084521 41.527864 74.8042261 45.236068 75.702282 50.472136"></polygon>
                    </g>
                    <g id="Group-2-Copy-22" transform="translate(210.000000, 54.000000)">
                        <path d="M51.85965,25.8535534 L51.85965,56.8535534 C51.85965,60.7195466 54.9936568,63.8535534 58.85965,63.8535534 L89.85965,63.8535534 L89.85965,32.8535534 C89.85965,28.9875601 86.7256433,25.8535534 82.85965,25.8535534 L51.85965,25.8535534 Z" id="Rectangle" stroke="#007856" stroke-width="2" fill-rule="nonzero" transform="translate(70.859650, 44.853553) rotate(-315.000000) translate(-70.859650, -44.853553) "></path>
                        <path d="M10.14035,25.1464466 L10.14035,56.1464466 C10.14035,60.0124399 13.2743567,63.1464466 17.14035,63.1464466 L48.14035,63.1464466 L48.14035,32.1464466 C48.14035,28.2804534 45.0063432,25.1464466 41.14035,25.1464466 L10.14035,25.1464466 Z" id="Rectangle-Copy-3" stroke="#007856" stroke-width="2" fill-rule="nonzero" transform="translate(29.140350, 44.146447) rotate(-315.000000) translate(-29.140350, -44.146447) "></path>
                        <rect id="Rectangle" fill="#005B3E" fill-rule="nonzero" transform="translate(49.646447, 71.723611) rotate(-315.000000) translate(-49.646447, -71.723611) " x="37.6464466" y="59.7236111" width="24" height="24"></rect>
                        <rect id="Rectangle-Copy-4" fill="#005B3E" fill-rule="nonzero" transform="translate(50.353553, 17.276389) rotate(-315.000000) translate(-50.353553, -17.276389) " x="38.3535534" y="5.27638892" width="24" height="24"></rect>
                        <polygon id="Star" fill="#007856" fill-rule="nonzero" points="29 48 24.297718 50.472136 25.1957739 45.236068 21.3915479 41.527864 26.648859 40.763932 29 36 31.351141 40.763932 36.6084521 41.527864 32.8042261 45.236068 33.702282 50.472136"></polygon>
                        <path d="M48.0550027,38.3242283 L50.3535534,40.5981796" id="Path-3" stroke="#006544" fill-rule="nonzero"></path>
                        <path d="M49.9637005,36 L52.9066908,38.9090602" id="Path-4" stroke="#006544" fill-rule="nonzero"></path>
                        <path d="M49.7982468,48.4713804 L52.002203,50.7591885" id="Path-5" stroke="#006544" fill-rule="nonzero"></path>
                        <path d="M47.2843464,50.2687494 L49.7982468,52.7999413" id="Path-6" stroke="#006544" fill-rule="nonzero"></path>
                        <polygon id="Star-Copy" fill="#007856" fill-rule="nonzero" points="71 48 66.297718 50.472136 67.1957739 45.236068 63.3915479 41.527864 68.648859 40.763932 71 36 73.351141 40.763932 78.6084521 41.527864 74.8042261 45.236068 75.702282 50.472136"></polygon>
                    </g>
                    <g id="Group-2-Copy-21" transform="translate(168.000000, 0.000000)">
                        <path d="M51.85965,25.8535534 L51.85965,56.8535534 C51.85965,60.7195466 54.9936568,63.8535534 58.85965,63.8535534 L89.85965,63.8535534 L89.85965,32.8535534 C89.85965,28.9875601 86.7256433,25.8535534 82.85965,25.8535534 L51.85965,25.8535534 Z" id="Rectangle" stroke="#007856" stroke-width="2" fill-rule="nonzero" transform="translate(70.859650, 44.853553) rotate(-315.000000) translate(-70.859650, -44.853553) "></path>
                        <path d="M10.14035,25.1464466 L10.14035,56.1464466 C10.14035,60.0124399 13.2743567,63.1464466 17.14035,63.1464466 L48.14035,63.1464466 L48.14035,32.1464466 C48.14035,28.2804534 45.0063432,25.1464466 41.14035,25.1464466 L10.14035,25.1464466 Z" id="Rectangle-Copy-3" stroke="#007856" stroke-width="2" fill-rule="nonzero" transform="translate(29.140350, 44.146447) rotate(-315.000000) translate(-29.140350, -44.146447) "></path>
                        <rect id="Rectangle" fill="#005B3E" fill-rule="nonzero" transform="translate(49.646447, 71.723611) rotate(-315.000000) translate(-49.646447, -71.723611) " x="37.6464466" y="59.7236111" width="24" height="24"></rect>
                        <rect id="Rectangle-Copy-4" fill="#005B3E" fill-rule="nonzero" transform="translate(50.353553, 17.276389) rotate(-315.000000) translate(-50.353553, -17.276389) " x="38.3535534" y="5.27638892" width="24" height="24"></rect>
                        <polygon id="Star" fill="#007856" fill-rule="nonzero" points="29 48 24.297718 50.472136 25.1957739 45.236068 21.3915479 41.527864 26.648859 40.763932 29 36 31.351141 40.763932 36.6084521 41.527864 32.8042261 45.236068 33.702282 50.472136"></polygon>
                        <path d="M48.0550027,38.3242283 L50.3535534,40.5981796" id="Path-3" stroke="#006544" fill-rule="nonzero"></path>
                        <path d="M49.9637005,36 L52.9066908,38.9090602" id="Path-4" stroke="#006544" fill-rule="nonzero"></path>
                        <path d="M49.7982468,48.4713804 L52.002203,50.7591885" id="Path-5" stroke="#006544" fill-rule="nonzero"></path>
                        <path d="M47.2843464,50.2687494 L49.7982468,52.7999413" id="Path-6" stroke="#006544" fill-rule="nonzero"></path>
                        <polygon id="Star-Copy" fill="#007856" fill-rule="nonzero" points="71 48 66.297718 50.472136 67.1957739 45.236068 63.3915479 41.527864 68.648859 40.763932 71 36 73.351141 40.763932 78.6084521 41.527864 74.8042261 45.236068 75.702282 50.472136"></polygon>
                    </g>
                    <g id="Group-2-Copy-20" transform="translate(252.000000, 0.000000)">
                        <path d="M51.85965,25.8535534 L51.85965,56.8535534 C51.85965,60.7195466 54.9936568,63.8535534 58.85965,63.8535534 L89.85965,63.8535534 L89.85965,32.8535534 C89.85965,28.9875601 86.7256433,25.8535534 82.85965,25.8535534 L51.85965,25.8535534 Z" id="Rectangle" stroke="#007856" stroke-width="2" fill-rule="nonzero" transform="translate(70.859650, 44.853553) rotate(-315.000000) translate(-70.859650, -44.853553) "></path>
                        <path d="M10.14035,25.1464466 L10.14035,56.1464466 C10.14035,60.0124399 13.2743567,63.1464466 17.14035,63.1464466 L48.14035,63.1464466 L48.14035,32.1464466 C48.14035,28.2804534 45.0063432,25.1464466 41.14035,25.1464466 L10.14035,25.1464466 Z" id="Rectangle-Copy-3" stroke="#007856" stroke-width="2" fill-rule="nonzero" transform="translate(29.140350, 44.146447) rotate(-315.000000) translate(-29.140350, -44.146447) "></path>
                        <rect id="Rectangle" fill="#005B3E" fill-rule="nonzero" transform="translate(49.646447, 71.723611) rotate(-315.000000) translate(-49.646447, -71.723611) " x="37.6464466" y="59.7236111" width="24" height="24"></rect>
                        <rect id="Rectangle-Copy-4" fill="#005B3E" fill-rule="nonzero" transform="translate(50.353553, 17.276389) rotate(-315.000000) translate(-50.353553, -17.276389) " x="38.3535534" y="5.27638892" width="24" height="24"></rect>
                        <polygon id="Star" fill="#007856" fill-rule="nonzero" points="29 48 24.297718 50.472136 25.1957739 45.236068 21.3915479 41.527864 26.648859 40.763932 29 36 31.351141 40.763932 36.6084521 41.527864 32.8042261 45.236068 33.702282 50.472136"></polygon>
                        <path d="M48.0550027,38.3242283 L50.3535534,40.5981796" id="Path-3" stroke="#006544" fill-rule="nonzero"></path>
                        <path d="M49.9637005,36 L52.9066908,38.9090602" id="Path-4" stroke="#006544" fill-rule="nonzero"></path>
                        <path d="M49.7982468,48.4713804 L52.002203,50.7591885" id="Path-5" stroke="#006544" fill-rule="nonzero"></path>
                        <path d="M47.2843464,50.2687494 L49.7982468,52.7999413" id="Path-6" stroke="#006544" fill-rule="nonzero"></path>
                        <polygon id="Star-Copy" fill="#007856" fill-rule="nonzero" points="71 48 66.297718 50.472136 67.1957739 45.236068 63.3915479 41.527864 68.648859 40.763932 71 36 73.351141 40.763932 78.6084521 41.527864 74.8042261 45.236068 75.702282 50.472136"></polygon>
                    </g>
                    <g id="Group-2-Copy-19" transform="translate(294.000000, 54.000000)">
                        <path d="M51.85965,25.8535534 L51.85965,56.8535534 C51.85965,60.7195466 54.9936568,63.8535534 58.85965,63.8535534 L89.85965,63.8535534 L89.85965,32.8535534 C89.85965,28.9875601 86.7256433,25.8535534 82.85965,25.8535534 L51.85965,25.8535534 Z" id="Rectangle" stroke="#007856" stroke-width="2" fill-rule="nonzero" transform="translate(70.859650, 44.853553) rotate(-315.000000) translate(-70.859650, -44.853553) "></path>
                        <path d="M10.14035,25.1464466 L10.14035,56.1464466 C10.14035,60.0124399 13.2743567,63.1464466 17.14035,63.1464466 L48.14035,63.1464466 L48.14035,32.1464466 C48.14035,28.2804534 45.0063432,25.1464466 41.14035,25.1464466 L10.14035,25.1464466 Z" id="Rectangle-Copy-3" stroke="#007856" stroke-width="2" fill-rule="nonzero" transform="translate(29.140350, 44.146447) rotate(-315.000000) translate(-29.140350, -44.146447) "></path>
                        <rect id="Rectangle" fill="#005B3E" fill-rule="nonzero" transform="translate(49.646447, 71.723611) rotate(-315.000000) translate(-49.646447, -71.723611) " x="37.6464466" y="59.7236111" width="24" height="24"></rect>
                        <rect id="Rectangle-Copy-4" fill="#005B3E" fill-rule="nonzero" transform="translate(50.353553, 17.276389) rotate(-315.000000) translate(-50.353553, -17.276389) " x="38.3535534" y="5.27638892" width="24" height="24"></rect>
                        <polygon id="Star" fill="#007856" fill-rule="nonzero" points="29 48 24.297718 50.472136 25.1957739 45.236068 21.3915479 41.527864 26.648859 40.763932 29 36 31.351141 40.763932 36.6084521 41.527864 32.8042261 45.236068 33.702282 50.472136"></polygon>
                        <path d="M48.0550027,38.3242283 L50.3535534,40.5981796" id="Path-3" stroke="#006544" fill-rule="nonzero"></path>
                        <path d="M49.9637005,36 L52.9066908,38.9090602" id="Path-4" stroke="#006544" fill-rule="nonzero"></path>
                        <path d="M49.7982468,48.4713804 L52.002203,50.7591885" id="Path-5" stroke="#006544" fill-rule="nonzero"></path>
                        <path d="M47.2843464,50.2687494 L49.7982468,52.7999413" id="Path-6" stroke="#006544" fill-rule="nonzero"></path>
                    </g>
                    <g id="Group-2-Copy-18" transform="translate(168.000000, 109.000000)">
                        <path d="M51.85965,25.8535534 L51.85965,56.8535534 C51.85965,60.7195466 54.9936568,63.8535534 58.85965,63.8535534 L89.85965,63.8535534 L89.85965,32.8535534 C89.85965,28.9875601 86.7256433,25.8535534 82.85965,25.8535534 L51.85965,25.8535534 Z" id="Rectangle" stroke="#007856" stroke-width="2" fill-rule="nonzero" transform="translate(70.859650, 44.853553) rotate(-315.000000) translate(-70.859650, -44.853553) "></path>
                        <path d="M10.14035,25.1464466 L10.14035,56.1464466 C10.14035,60.0124399 13.2743567,63.1464466 17.14035,63.1464466 L48.14035,63.1464466 L48.14035,32.1464466 C48.14035,28.2804534 45.0063432,25.1464466 41.14035,25.1464466 L10.14035,25.1464466 Z" id="Rectangle-Copy-3" stroke="#007856" stroke-width="2" fill-rule="nonzero" transform="translate(29.140350, 44.146447) rotate(-315.000000) translate(-29.140350, -44.146447) "></path>
                        <rect id="Rectangle" fill="#005B3E" fill-rule="nonzero" transform="translate(49.646447, 71.723611) rotate(-315.000000) translate(-49.646447, -71.723611) " x="37.6464466" y="59.7236111" width="24" height="24"></rect>
                        <rect id="Rectangle-Copy-4" fill="#005B3E" fill-rule="nonzero" transform="translate(50.353553, 17.276389) rotate(-315.000000) translate(-50.353553, -17.276389) " x="38.3535534" y="5.27638892" width="24" height="24"></rect>
                        <polygon id="Star" fill="#007856" fill-rule="nonzero" points="29 48 24.297718 50.472136 25.1957739 45.236068 21.3915479 41.527864 26.648859 40.763932 29 36 31.351141 40.763932 36.6084521 41.527864 32.8042261 45.236068 33.702282 50.472136"></polygon>
                        <path d="M48.0550027,38.3242283 L50.3535534,40.5981796" id="Path-3" stroke="#006544" fill-rule="nonzero"></path>
                        <path d="M49.9637005,36 L52.9066908,38.9090602" id="Path-4" stroke="#006544" fill-rule="nonzero"></path>
                        <path d="M49.7982468,48.4713804 L52.002203,50.7591885" id="Path-5" stroke="#006544" fill-rule="nonzero"></path>
                        <path d="M47.2843464,50.2687494 L49.7982468,52.7999413" id="Path-6" stroke="#006544" fill-rule="nonzero"></path>
                        <polygon id="Star-Copy" fill="#007856" fill-rule="nonzero" points="71 48 66.297718 50.472136 67.1957739 45.236068 63.3915479 41.527864 68.648859 40.763932 71 36 73.351141 40.763932 78.6084521 41.527864 74.8042261 45.236068 75.702282 50.472136"></polygon>
                    </g>
                    <g id="Group-2-Copy-17" transform="translate(210.000000, 163.000000)">
                        <path d="M51.85965,25.8535534 L51.85965,56.8535534 C51.85965,60.7195466 54.9936568,63.8535534 58.85965,63.8535534 L89.85965,63.8535534 L89.85965,32.8535534 C89.85965,28.9875601 86.7256433,25.8535534 82.85965,25.8535534 L51.85965,25.8535534 Z" id="Rectangle" stroke="#007856" stroke-width="2" fill-rule="nonzero" transform="translate(70.859650, 44.853553) rotate(-315.000000) translate(-70.859650, -44.853553) "></path>
                        <path d="M10.14035,25.1464466 L10.14035,56.1464466 C10.14035,60.0124399 13.2743567,63.1464466 17.14035,63.1464466 L48.14035,63.1464466 L48.14035,32.1464466 C48.14035,28.2804534 45.0063432,25.1464466 41.14035,25.1464466 L10.14035,25.1464466 Z" id="Rectangle-Copy-3" stroke="#007856" stroke-width="2" fill-rule="nonzero" transform="translate(29.140350, 44.146447) rotate(-315.000000) translate(-29.140350, -44.146447) "></path>
                        <rect id="Rectangle" fill="#005B3E" fill-rule="nonzero" transform="translate(49.646447, 71.723611) rotate(-315.000000) translate(-49.646447, -71.723611) " x="37.6464466" y="59.7236111" width="24" height="24"></rect>
                        <rect id="Rectangle-Copy-4" fill="#005B3E" fill-rule="nonzero" transform="translate(50.353553, 17.276389) rotate(-315.000000) translate(-50.353553, -17.276389) " x="38.3535534" y="5.27638892" width="24" height="24"></rect>
                        <polygon id="Star" fill="#007856" fill-rule="nonzero" points="29 48 24.297718 50.472136 25.1957739 45.236068 21.3915479 41.527864 26.648859 40.763932 29 36 31.351141 40.763932 36.6084521 41.527864 32.8042261 45.236068 33.702282 50.472136"></polygon>
                        <path d="M48.0550027,38.3242283 L50.3535534,40.5981796" id="Path-3" stroke="#006544" fill-rule="nonzero"></path>
                        <path d="M49.9637005,36 L52.9066908,38.9090602" id="Path-4" stroke="#006544" fill-rule="nonzero"></path>
                        <path d="M49.7982468,48.4713804 L52.002203,50.7591885" id="Path-5" stroke="#006544" fill-rule="nonzero"></path>
                        <path d="M47.2843464,50.2687494 L49.7982468,52.7999413" id="Path-6" stroke="#006544" fill-rule="nonzero"></path>
                        <polygon id="Star-Copy" fill="#007856" fill-rule="nonzero" points="71 48 66.297718 50.472136 67.1957739 45.236068 63.3915479 41.527864 68.648859 40.763932 71 36 73.351141 40.763932 78.6084521 41.527864 74.8042261 45.236068 75.702282 50.472136"></polygon>
                    </g>
                    <g id="Group-2-Copy-16" transform="translate(252.000000, 109.000000)">
                        <path d="M51.85965,25.8535534 L51.85965,56.8535534 C51.85965,60.7195466 54.9936568,63.8535534 58.85965,63.8535534 L89.85965,63.8535534 L89.85965,32.8535534 C89.85965,28.9875601 86.7256433,25.8535534 82.85965,25.8535534 L51.85965,25.8535534 Z" id="Rectangle" stroke="#007856" stroke-width="2" fill-rule="nonzero" transform="translate(70.859650, 44.853553) rotate(-315.000000) translate(-70.859650, -44.853553) "></path>
                        <path d="M10.14035,25.1464466 L10.14035,56.1464466 C10.14035,60.0124399 13.2743567,63.1464466 17.14035,63.1464466 L48.14035,63.1464466 L48.14035,32.1464466 C48.14035,28.2804534 45.0063432,25.1464466 41.14035,25.1464466 L10.14035,25.1464466 Z" id="Rectangle-Copy-3" stroke="#007856" stroke-width="2" fill-rule="nonzero" transform="translate(29.140350, 44.146447) rotate(-315.000000) translate(-29.140350, -44.146447) "></path>
                        <rect id="Rectangle" fill="#005B3E" fill-rule="nonzero" transform="translate(49.646447, 71.723611) rotate(-315.000000) translate(-49.646447, -71.723611) " x="37.6464466" y="59.7236111" width="24" height="24"></rect>
                        <rect id="Rectangle-Copy-4" fill="#005B3E" fill-rule="nonzero" transform="translate(50.353553, 17.276389) rotate(-315.000000) translate(-50.353553, -17.276389) " x="38.3535534" y="5.27638892" width="24" height="24"></rect>
                        <polygon id="Star" fill="#007856" fill-rule="nonzero" points="29 48 24.297718 50.472136 25.1957739 45.236068 21.3915479 41.527864 26.648859 40.763932 29 36 31.351141 40.763932 36.6084521 41.527864 32.8042261 45.236068 33.702282 50.472136"></polygon>
                        <path d="M48.0550027,38.3242283 L50.3535534,40.5981796" id="Path-3" stroke="#006544" fill-rule="nonzero"></path>
                        <path d="M49.9637005,36 L52.9066908,38.9090602" id="Path-4" stroke="#006544" fill-rule="nonzero"></path>
                        <path d="M49.7982468,48.4713804 L52.002203,50.7591885" id="Path-5" stroke="#006544" fill-rule="nonzero"></path>
                        <path d="M47.2843464,50.2687494 L49.7982468,52.7999413" id="Path-6" stroke="#006544" fill-rule="nonzero"></path>
                        <polygon id="Star-Copy" fill="#007856" fill-rule="nonzero" points="71 48 66.297718 50.472136 67.1957739 45.236068 63.3915479 41.527864 68.648859 40.763932 71 36 73.351141 40.763932 78.6084521 41.527864 74.8042261 45.236068 75.702282 50.472136"></polygon>
                    </g>
                    <g id="Group-2-Copy-15" transform="translate(294.000000, 163.000000)">
                        <path d="M51.85965,25.8535534 L51.85965,56.8535534 C51.85965,60.7195466 54.9936568,63.8535534 58.85965,63.8535534 L89.85965,63.8535534 L89.85965,32.8535534 C89.85965,28.9875601 86.7256433,25.8535534 82.85965,25.8535534 L51.85965,25.8535534 Z" id="Rectangle" stroke="#007856" stroke-width="2" fill-rule="nonzero" transform="translate(70.859650, 44.853553) rotate(-315.000000) translate(-70.859650, -44.853553) "></path>
                        <path d="M10.14035,25.1464466 L10.14035,56.1464466 C10.14035,60.0124399 13.2743567,63.1464466 17.14035,63.1464466 L48.14035,63.1464466 L48.14035,32.1464466 C48.14035,28.2804534 45.0063432,25.1464466 41.14035,25.1464466 L10.14035,25.1464466 Z" id="Rectangle-Copy-3" stroke="#007856" stroke-width="2" fill-rule="nonzero" transform="translate(29.140350, 44.146447) rotate(-315.000000) translate(-29.140350, -44.146447) "></path>
                        <rect id="Rectangle" fill="#005B3E" fill-rule="nonzero" transform="translate(49.646447, 71.723611) rotate(-315.000000) translate(-49.646447, -71.723611) " x="37.6464466" y="59.7236111" width="24" height="24"></rect>
                        <rect id="Rectangle-Copy-4" fill="#005B3E" fill-rule="nonzero" transform="translate(50.353553, 17.276389) rotate(-315.000000) translate(-50.353553, -17.276389) " x="38.3535534" y="5.27638892" width="24" height="24"></rect>
                        <polygon id="Star" fill="#007856" fill-rule="nonzero" points="29 48 24.297718 50.472136 25.1957739 45.236068 21.3915479 41.527864 26.648859 40.763932 29 36 31.351141 40.763932 36.6084521 41.527864 32.8042261 45.236068 33.702282 50.472136"></polygon>
                        <path d="M48.0550027,38.3242283 L50.3535534,40.5981796" id="Path-3" stroke="#006544" fill-rule="nonzero"></path>
                        <path d="M49.9637005,36 L52.9066908,38.9090602" id="Path-4" stroke="#006544" fill-rule="nonzero"></path>
                        <path d="M49.7982468,48.4713804 L52.002203,50.7591885" id="Path-5" stroke="#006544" fill-rule="nonzero"></path>
                        <path d="M47.2843464,50.2687494 L49.7982468,52.7999413" id="Path-6" stroke="#006544" fill-rule="nonzero"></path>
                    </g>
                </g>
            </g>
        </g>
    </g>
</svg>